<svg xmlns="http://www.w3.org/2000/svg" xmlns:xlink="http://www.w3.org/1999/xlink" width="500" zoomAndPan="magnify" viewBox="0 0 375 374.999991" height="500" preserveAspectRatio="xMidYMid meet" version="1.0"><defs><clipPath id="id1"><path d="M 17.042969 17.042969 L 358.292969 17.042969 L 358.292969 358.292969 L 17.042969 358.292969 Z M 17.042969 17.042969 " clip-rule="nonzero"/></clipPath></defs><g clip-path="url(#id1)"><path fill="#90e1ef" d="M 187.667969 358.292969 C 281.777344 358.292969 358.292969 281.777344 358.292969 187.667969 C 358.292969 93.554688 281.777344 17.042969 187.667969 17.042969 C 93.554688 17.042969 17.042969 93.554688 17.042969 187.667969 C 17.042969 281.777344 93.554688 358.292969 187.667969 358.292969 Z M 187.667969 59.699219 C 258.226562 59.699219 315.636719 117.105469 315.636719 187.667969 C 315.636719 258.226562 258.226562 315.636719 187.667969 315.636719 C 117.105469 315.636719 59.699219 258.226562 59.699219 187.667969 C 59.699219 117.105469 117.105469 59.699219 187.667969 59.699219 Z M 258.671875 187.667969 L 148.210938 251.472656 L 148.210938 123.859375 Z M 258.671875 187.667969 " fill-opacity="1" fill-rule="nonzero"/></g></svg>