<svg xmlns="http://www.w3.org/2000/svg" xmlns:xlink="http://www.w3.org/1999/xlink" width="500" zoomAndPan="magnify" viewBox="0 0 375 374.999991" height="500" preserveAspectRatio="xMidYMid meet" version="1.0"><defs><clipPath id="id1"><path d="M 6 162 L 281 162 L 281 352.839844 L 6 352.839844 Z M 6 162 " clip-rule="nonzero"/></clipPath></defs><path fill="#0077b6" d="M 362.539062 185.785156 C 355.25 155.511719 330.304688 127.203125 295.824219 110.101562 C 291.898438 108.140625 287.695312 106.179688 283.488281 104.496094 C 271.714844 99.453125 260.785156 94.6875 252.65625 85.996094 C 248.730469 81.792969 245.367188 77.589844 241.441406 72.824219 C 234.152344 63.855469 226.867188 54.886719 217.613281 47.597656 C 192.386719 27.695312 157.066406 22.089844 125.949219 33.582031 C 96.515625 44.515625 76.054688 67.777344 69.886719 97.769531 C 65.402344 118.792969 68.484375 140.09375 78.855469 161.117188 C 82.5 159.996094 86.144531 159.15625 90.070312 158.316406 C 87.828125 153.828125 85.863281 149.34375 84.464844 144.859375 L 89.507812 137.011719 C 91.191406 134.488281 90.628906 130.84375 87.828125 129.164062 C 85.304688 127.480469 82.21875 128.042969 80.539062 130.285156 C 78.578125 119.914062 78.855469 109.824219 80.820312 99.734375 C 86.144531 73.664062 104.085938 53.203125 129.875 43.953125 C 139.40625 40.589844 149.21875 38.628906 159.308594 38.628906 C 177.808594 38.628906 196.308594 44.515625 210.886719 56.285156 C 219.015625 62.734375 226.304688 71.421875 233.03125 79.832031 C 236.675781 84.316406 240.601562 89.363281 244.804688 93.566406 C 247.046875 96.089844 249.851562 98.332031 252.375 100.292969 C 250.691406 104.21875 247.890625 107.582031 244.246094 109.542969 C 241.722656 111.226562 240.882812 114.589844 242.28125 117.390625 C 243.964844 119.914062 247.328125 120.753906 250.132812 119.351562 C 255.175781 116.269531 259.101562 111.785156 261.90625 106.460938 C 267.511719 109.542969 273.398438 112.066406 279.285156 114.589844 C 283.488281 116.269531 287.132812 117.953125 291.058594 119.914062 C 307.035156 127.761719 320.492188 138.132812 331.144531 149.90625 L 326.9375 156.070312 C 325.257812 158.59375 325.816406 162.238281 328.621094 163.921875 C 331.144531 165.601562 334.789062 165.042969 336.46875 162.238281 L 338.710938 159.15625 C 345.160156 168.40625 349.644531 178.214844 352.167969 188.027344 C 358.054688 212.410156 351.886719 240.722656 336.46875 259.78125 C 324.417969 274.917969 306.476562 282.484375 288.253906 284.726562 C 287.132812 288.652344 285.730469 292.578125 284.050781 296.21875 C 307.035156 294.820312 330.023438 285.847656 345.441406 266.789062 C 362.257812 244.925781 369.265625 213.8125 362.539062 185.785156 Z M 362.539062 185.785156 " fill-opacity="1" fill-rule="nonzero"/><g clip-path="url(#id1)"><path fill="#0077b6" d="M 254.898438 191.109375 C 231.351562 170.085938 196.308594 160.558594 150.898438 162.519531 C 115.019531 163.921875 5.695312 168.683594 6.253906 259.78125 C 6.535156 304.628906 47.179688 335.183594 85.023438 344.429688 C 105.765625 349.476562 129.59375 352.839844 153.140625 352.839844 C 197.152344 352.839844 240.601562 341.066406 263.867188 308.273438 C 286.855469 276.039062 288.816406 221.101562 254.898438 191.109375 Z M 254.617188 301.828125 C 246.207031 313.320312 234.996094 322.007812 222.101562 328.453125 L 222.101562 324.8125 C 222.101562 321.726562 219.578125 319.203125 216.492188 319.203125 C 213.410156 319.203125 210.886719 321.726562 210.886719 324.8125 L 210.886719 332.9375 C 173.886719 346.113281 125.949219 343.03125 87.546875 333.5 C 84.742188 332.9375 81.941406 332.097656 79.136719 330.976562 C 79.136719 330.695312 79.136719 330.695312 79.136719 330.417969 L 79.136719 319.203125 C 79.136719 316.121094 76.613281 313.597656 73.53125 313.597656 C 70.445312 313.597656 67.925781 316.121094 67.925781 319.203125 L 67.925781 326.492188 C 41.292969 314.160156 17.746094 290.894531 17.46875 259.5 C 17.1875 207.648438 55.589844 180.457031 138.003906 174.570312 L 138.003906 181.859375 C 138.003906 184.941406 140.527344 187.464844 143.609375 187.464844 C 146.695312 187.464844 149.21875 184.941406 149.21875 181.859375 L 149.21875 173.730469 C 150.058594 173.730469 158.746094 173.449219 162.113281 173.449219 C 199.394531 173.449219 227.988281 182.140625 247.328125 199.519531 C 276.761719 225.585938 274.800781 273.515625 254.617188 301.828125 Z M 254.617188 301.828125 " fill-opacity="1" fill-rule="nonzero"/></g><path fill="#0077b6" d="M 56.710938 240.722656 C 53.628906 240.722656 51.105469 243.246094 51.105469 246.328125 L 51.105469 257.539062 C 51.105469 260.621094 53.628906 263.144531 56.710938 263.144531 C 59.796875 263.144531 62.316406 260.621094 62.316406 257.539062 L 62.316406 246.328125 C 62.316406 243.246094 59.796875 240.722656 56.710938 240.722656 Z M 56.710938 240.722656 " fill-opacity="1" fill-rule="nonzero"/><path fill="#0077b6" d="M 140.808594 251.933594 C 137.722656 251.933594 135.199219 254.457031 135.199219 257.539062 L 135.199219 268.75 C 135.199219 271.835938 137.722656 274.355469 140.808594 274.355469 C 143.890625 274.355469 146.414062 271.835938 146.414062 268.75 L 146.414062 257.539062 C 146.414062 254.457031 143.890625 251.933594 140.808594 251.933594 Z M 140.808594 251.933594 " fill-opacity="1" fill-rule="nonzero"/><path fill="#0077b6" d="M 138.003906 100.574219 C 139.6875 100.574219 141.648438 99.734375 142.769531 98.050781 L 148.375 89.640625 C 150.058594 87.121094 149.496094 83.476562 146.695312 81.792969 C 144.171875 80.113281 140.527344 80.671875 138.84375 83.476562 C 138.84375 83.476562 133.238281 91.882812 133.238281 91.882812 C 130.996094 95.527344 133.519531 100.574219 138.003906 100.574219 Z M 138.003906 100.574219 " fill-opacity="1" fill-rule="nonzero"/><path fill="#0077b6" d="M 194.066406 151.027344 C 195.75 151.027344 197.710938 150.1875 198.832031 148.503906 L 204.441406 140.09375 C 206.121094 137.574219 205.5625 133.929688 202.757812 132.246094 C 200.234375 130.566406 196.589844 131.125 194.910156 133.929688 C 194.910156 133.929688 189.300781 142.335938 189.300781 142.335938 C 187.058594 145.980469 189.863281 151.027344 194.066406 151.027344 Z M 194.066406 151.027344 " fill-opacity="1" fill-rule="nonzero"/><path fill="#0077b6" d="M 306.195312 229.511719 C 307.878906 229.511719 309.839844 228.667969 310.960938 226.988281 L 316.566406 218.578125 C 318.25 216.054688 317.6875 212.410156 314.886719 210.730469 C 312.363281 209.046875 308.71875 209.609375 307.035156 212.410156 C 307.035156 212.410156 301.429688 220.820312 301.429688 220.820312 C 299.1875 224.464844 301.710938 229.511719 306.195312 229.511719 Z M 306.195312 229.511719 " fill-opacity="1" fill-rule="nonzero"/><path fill="#0077b6" d="M 224.902344 240.722656 C 221.820312 240.722656 219.296875 243.246094 219.296875 246.328125 L 219.296875 257.539062 C 219.296875 260.621094 221.820312 263.144531 224.902344 263.144531 C 227.988281 263.144531 230.507812 260.621094 230.507812 257.539062 L 230.507812 246.328125 C 230.507812 243.246094 227.988281 240.722656 224.902344 240.722656 Z M 224.902344 240.722656 " fill-opacity="1" fill-rule="nonzero"/></svg>